<svg xmlns="http://www.w3.org/2000/svg" xmlns:xlink="http://www.w3.org/1999/xlink" width="890" zoomAndPan="magnify" viewBox="0 0 667.5 667.499984" height="890" preserveAspectRatio="xMidYMid meet" version="1.0"><defs><clipPath id="9d7ca7634b"><path d="M 0.578125 0.578125 L 666.578125 0.578125 L 666.578125 666.578125 L 0.578125 666.578125 Z M 0.578125 0.578125 " clip-rule="nonzero"/></clipPath><clipPath id="a3fafaca2d"><path d="M 166.289062 129.078125 L 501.425781 129.078125 L 501.425781 538.578125 L 166.289062 538.578125 Z M 166.289062 129.078125 " clip-rule="nonzero"/></clipPath></defs><g clip-path="url(#9d7ca7634b)"><path fill="#5e17eb" d="M 666.578125 333.578125 C 666.578125 339.027344 666.441406 344.472656 666.175781 349.917969 C 665.910156 355.359375 665.507812 360.792969 664.972656 366.21875 C 664.4375 371.640625 663.773438 377.046875 662.972656 382.4375 C 662.171875 387.828125 661.242188 393.195312 660.179688 398.542969 C 659.117188 403.886719 657.921875 409.203125 656.597656 414.488281 C 655.273438 419.777344 653.820312 425.027344 652.238281 430.242188 C 650.65625 435.457031 648.945312 440.628906 647.109375 445.761719 C 645.273438 450.894531 643.3125 455.976562 641.230469 461.011719 C 639.144531 466.046875 636.933594 471.027344 634.605469 475.953125 C 632.273438 480.878906 629.824219 485.746094 627.257812 490.550781 C 624.6875 495.359375 622.003906 500.097656 619.199219 504.773438 C 616.398438 509.449219 613.484375 514.050781 610.457031 518.582031 C 607.429688 523.113281 604.292969 527.566406 601.046875 531.945312 C 597.796875 536.320312 594.445312 540.617188 590.988281 544.828125 C 587.53125 549.042969 583.972656 553.167969 580.3125 557.207031 C 576.652344 561.246094 572.898438 565.191406 569.042969 569.042969 C 565.191406 572.898438 561.246094 576.652344 557.207031 580.3125 C 553.167969 583.972656 549.042969 587.53125 544.828125 590.988281 C 540.617188 594.445312 536.320312 597.796875 531.945312 601.046875 C 527.566406 604.292969 523.113281 607.429688 518.582031 610.457031 C 514.050781 613.484375 509.449219 616.398438 504.773438 619.199219 C 500.097656 622.003906 495.359375 624.6875 490.550781 627.257812 C 485.746094 629.824219 480.878906 632.273438 475.953125 634.605469 C 471.027344 636.933594 466.046875 639.144531 461.011719 641.230469 C 455.976562 643.3125 450.890625 645.273438 445.761719 647.109375 C 440.628906 648.945312 435.457031 650.65625 430.242188 652.238281 C 425.027344 653.820312 419.777344 655.273438 414.488281 656.597656 C 409.203125 657.921875 403.886719 659.113281 398.542969 660.179688 C 393.195312 661.242188 387.828125 662.171875 382.4375 662.972656 C 377.046875 663.773438 371.640625 664.4375 366.21875 664.972656 C 360.792969 665.507812 355.359375 665.910156 349.917969 666.175781 C 344.472656 666.441406 339.027344 666.578125 333.578125 666.578125 C 328.128906 666.578125 322.679688 666.441406 317.238281 666.175781 C 311.792969 665.910156 306.359375 665.507812 300.9375 664.972656 C 295.515625 664.4375 290.105469 663.773438 284.714844 662.972656 C 279.324219 662.171875 273.957031 661.242188 268.613281 660.179688 C 263.265625 659.113281 257.949219 657.921875 252.664062 656.597656 C 247.378906 655.273438 242.128906 653.820312 236.914062 652.238281 C 231.695312 650.65625 226.523438 648.945312 221.394531 647.109375 C 216.261719 645.273438 211.179688 643.3125 206.144531 641.230469 C 201.109375 639.144531 196.128906 636.933594 191.203125 634.605469 C 186.273438 632.273438 181.410156 629.824219 176.601562 627.257812 C 171.796875 624.6875 167.054688 622.003906 162.382812 619.199219 C 157.707031 616.398438 153.105469 613.484375 148.570312 610.457031 C 144.039062 607.429688 139.585938 604.292969 135.210938 601.046875 C 130.832031 597.796875 126.535156 594.445312 122.324219 590.988281 C 118.113281 587.53125 113.984375 583.972656 109.949219 580.3125 C 105.910156 576.652344 101.964844 572.898438 98.109375 569.042969 C 94.257812 565.191406 90.5 561.246094 86.839844 557.207031 C 83.179688 553.167969 79.621094 549.042969 76.164062 544.828125 C 72.707031 540.617188 69.355469 536.320312 66.109375 531.945312 C 62.863281 527.566406 59.726562 523.113281 56.699219 518.582031 C 53.671875 514.050781 50.753906 509.449219 47.953125 504.773438 C 45.152344 500.097656 42.464844 495.359375 39.898438 490.550781 C 37.328125 485.746094 34.878906 480.878906 32.546875 475.953125 C 30.21875 471.027344 28.011719 466.046875 25.925781 461.011719 C 23.839844 455.976562 21.878906 450.890625 20.042969 445.761719 C 18.207031 440.628906 16.496094 435.457031 14.917969 430.242188 C 13.335938 425.027344 11.882812 419.777344 10.558594 414.488281 C 9.234375 409.203125 8.039062 403.886719 6.976562 398.542969 C 5.914062 393.195312 4.980469 387.828125 4.179688 382.4375 C 3.382812 377.046875 2.714844 371.640625 2.179688 366.21875 C 1.648438 360.792969 1.246094 355.359375 0.976562 349.917969 C 0.710938 344.472656 0.578125 339.027344 0.578125 333.578125 C 0.578125 328.128906 0.710938 322.679688 0.976562 317.238281 C 1.246094 311.792969 1.648438 306.359375 2.179688 300.9375 C 2.714844 295.515625 3.382812 290.105469 4.179688 284.714844 C 4.980469 279.324219 5.914062 273.957031 6.976562 268.613281 C 8.039062 263.265625 9.234375 257.953125 10.558594 252.664062 C 11.882812 247.378906 13.335938 242.128906 14.917969 236.914062 C 16.496094 231.695312 18.207031 226.523438 20.042969 221.394531 C 21.878906 216.261719 23.839844 211.179688 25.925781 206.144531 C 28.011719 201.109375 30.21875 196.128906 32.546875 191.203125 C 34.878906 186.273438 37.328125 181.410156 39.898438 176.601562 C 42.464844 171.796875 45.152344 167.054688 47.953125 162.382812 C 50.753906 157.707031 53.671875 153.105469 56.699219 148.574219 C 59.726562 144.039062 62.863281 139.585938 66.109375 135.210938 C 69.355469 130.832031 72.707031 126.535156 76.164062 122.324219 C 79.621094 118.113281 83.179688 113.984375 86.839844 109.949219 C 90.5 105.910156 94.257812 101.964844 98.109375 98.109375 C 101.964844 94.257812 105.910156 90.5 109.949219 86.839844 C 113.984375 83.179688 118.113281 79.621094 122.324219 76.164062 C 126.535156 72.707031 130.832031 69.355469 135.210938 66.109375 C 139.585938 62.863281 144.039062 59.726562 148.570312 56.699219 C 153.105469 53.671875 157.707031 50.753906 162.382812 47.953125 C 167.054688 45.152344 171.796875 42.464844 176.601562 39.898438 C 181.410156 37.328125 186.273438 34.878906 191.203125 32.546875 C 196.128906 30.21875 201.109375 28.011719 206.144531 25.925781 C 211.179688 23.839844 216.261719 21.878906 221.394531 20.042969 C 226.523438 18.207031 231.695312 16.496094 236.914062 14.917969 C 242.128906 13.335938 247.378906 11.882812 252.664062 10.558594 C 257.949219 9.234375 263.265625 8.039062 268.613281 6.976562 C 273.957031 5.914062 279.324219 4.980469 284.714844 4.179688 C 290.105469 3.382812 295.515625 2.714844 300.9375 2.179688 C 306.359375 1.648438 311.792969 1.246094 317.238281 0.976562 C 322.679688 0.710938 328.128906 0.578125 333.578125 0.578125 C 339.027344 0.578125 344.472656 0.710938 349.917969 0.976562 C 355.359375 1.246094 360.792969 1.648438 366.21875 2.179688 C 371.640625 2.714844 377.046875 3.382812 382.4375 4.179688 C 387.828125 4.980469 393.195312 5.914062 398.542969 6.976562 C 403.886719 8.039062 409.203125 9.234375 414.488281 10.558594 C 419.777344 11.882812 425.027344 13.335938 430.242188 14.917969 C 435.457031 16.496094 440.628906 18.207031 445.761719 20.042969 C 450.890625 21.878906 455.976562 23.839844 461.011719 25.925781 C 466.046875 28.011719 471.027344 30.21875 475.953125 32.546875 C 480.878906 34.878906 485.746094 37.328125 490.550781 39.898438 C 495.359375 42.464844 500.097656 45.152344 504.773438 47.953125 C 509.449219 50.753906 514.050781 53.671875 518.582031 56.699219 C 523.113281 59.726562 527.566406 62.863281 531.945312 66.109375 C 536.320312 69.355469 540.617188 72.707031 544.828125 76.164062 C 549.042969 79.621094 553.167969 83.179688 557.207031 86.839844 C 561.246094 90.5 565.191406 94.257812 569.042969 98.109375 C 572.898438 101.964844 576.652344 105.910156 580.3125 109.949219 C 583.972656 113.984375 587.53125 118.113281 590.988281 122.324219 C 594.445312 126.535156 597.796875 130.832031 601.046875 135.210938 C 604.292969 139.585938 607.429688 144.039062 610.457031 148.570312 C 613.484375 153.105469 616.398438 157.707031 619.199219 162.382812 C 622.003906 167.054688 624.6875 171.796875 627.257812 176.601562 C 629.824219 181.410156 632.273438 186.273438 634.605469 191.203125 C 636.933594 196.128906 639.144531 201.109375 641.230469 206.144531 C 643.3125 211.179688 645.273438 216.261719 647.109375 221.394531 C 648.945312 226.523438 650.65625 231.695312 652.238281 236.914062 C 653.820312 242.128906 655.273438 247.378906 656.597656 252.664062 C 657.921875 257.953125 659.117188 263.265625 660.179688 268.613281 C 661.242188 273.957031 662.171875 279.324219 662.972656 284.714844 C 663.773438 290.105469 664.4375 295.515625 664.972656 300.9375 C 665.507812 306.359375 665.910156 311.792969 666.175781 317.238281 C 666.441406 322.679688 666.578125 328.128906 666.578125 333.578125 Z M 666.578125 333.578125 " fill-opacity="1" fill-rule="nonzero"/></g><path fill="#ffffff" d="M 219.035156 267.042969 L 433.003906 267.042969 C 440.382812 267.042969 446.378906 261.007812 446.378906 253.664062 C 446.378906 246.285156 440.382812 240.25 433.003906 240.25 L 219.035156 240.25 C 211.65625 240.25 205.660156 246.285156 205.660156 253.664062 C 205.660156 261.007812 211.65625 267.042969 219.035156 267.042969 " fill-opacity="1" fill-rule="nonzero"/><path fill="#ffffff" d="M 449.722656 293.871094 L 219.035156 293.871094 C 211.65625 293.871094 205.660156 299.90625 205.660156 307.289062 C 205.660156 314.632812 211.65625 320.703125 219.035156 320.703125 L 449.722656 320.703125 C 457.066406 320.703125 463.101562 314.632812 463.101562 307.289062 C 463.101562 299.90625 457.066406 293.871094 449.722656 293.871094 " fill-opacity="1" fill-rule="nonzero"/><path fill="#ffffff" d="M 436.636719 347.496094 L 219.035156 347.496094 C 211.65625 347.496094 205.660156 353.53125 205.660156 360.910156 C 205.660156 368.292969 211.65625 374.324219 219.035156 374.324219 L 436.636719 374.324219 C 443.980469 374.324219 450.015625 368.292969 450.015625 360.910156 C 450.015625 353.53125 443.980469 347.496094 436.636719 347.496094 " fill-opacity="1" fill-rule="nonzero"/><path fill="#ffffff" d="M 307.769531 401.121094 L 219.109375 401.121094 C 211.765625 401.121094 205.730469 407.191406 205.730469 414.535156 C 205.730469 421.914062 211.765625 427.949219 219.109375 427.949219 L 307.769531 427.949219 C 315.113281 427.949219 321.148438 421.914062 321.148438 414.535156 C 321.148438 407.191406 315.113281 401.121094 307.769531 401.121094 " fill-opacity="1" fill-rule="nonzero"/><g clip-path="url(#a3fafaca2d)"><path fill="#ffffff" d="M 488.039062 488.84375 C 488.039062 507.347656 473.5 525.160156 455.03125 525.160156 L 213.691406 525.160156 C 195.226562 525.160156 179.703125 507.347656 179.703125 488.84375 L 179.703125 193.898438 C 179.703125 176.375 194.0625 163.46875 211.332031 162.160156 C 209.148438 172.121094 210.058594 180.628906 214.636719 182.371094 C 220.492188 184.554688 229.46875 176.554688 235.6875 163.140625 L 254.40625 163.140625 C 252.191406 173.210938 253.351562 181.171875 257.96875 182.917969 C 263.785156 185.097656 273.019531 176.554688 279.234375 163.140625 L 297.992188 163.140625 C 295.773438 173.210938 296.9375 181.171875 301.519531 182.917969 C 307.371094 185.097656 316.605469 176.554688 322.820312 163.140625 L 341.578125 163.140625 C 339.324219 173.210938 340.523438 181.171875 345.105469 182.917969 C 350.921875 185.097656 360.152344 176.554688 366.40625 163.140625 L 385.128906 163.140625 C 382.910156 173.210938 384.074219 181.171875 388.691406 182.917969 C 394.507812 185.097656 403.738281 176.554688 409.957031 163.140625 L 428.714844 163.140625 C 426.496094 173.210938 427.660156 181.171875 432.238281 182.917969 C 438.089844 185.097656 447.324219 176.554688 453.542969 163.140625 L 455.03125 163.140625 C 473.5 163.140625 488.039062 175.394531 488.039062 193.898438 Z M 458.667969 148.78125 C 460.957031 138.675781 459.539062 131.148438 454.921875 129.402344 C 449.070312 127.1875 439.582031 136.3125 433.367188 149.726562 L 414.609375 149.726562 C 416.824219 139.691406 415.664062 131.695312 411.082031 129.949219 C 405.265625 127.769531 395.996094 136.3125 389.78125 149.726562 L 371.058594 149.726562 C 373.277344 139.691406 372.113281 131.695312 367.496094 129.949219 C 361.679688 127.769531 352.445312 136.3125 346.230469 149.726562 L 327.472656 149.726562 C 329.691406 139.691406 328.527344 131.695312 323.949219 129.949219 C 318.09375 127.769531 308.863281 136.3125 302.644531 149.726562 L 283.886719 149.726562 C 286.140625 139.691406 284.980469 131.695312 280.363281 129.949219 C 274.546875 127.769531 265.3125 136.3125 259.058594 149.726562 L 240.339844 149.726562 C 242.554688 139.691406 241.394531 131.695312 236.777344 129.949219 C 230.960938 127.769531 221.726562 136.3125 215.511719 149.726562 L 213.691406 149.726562 C 187.917969 149.726562 166.289062 168.085938 166.289062 193.898438 L 166.289062 488.84375 C 166.289062 514.65625 187.917969 538.578125 213.691406 538.578125 L 455.03125 538.578125 C 480.839844 538.578125 501.488281 514.65625 501.488281 488.84375 L 501.488281 193.898438 C 501.453125 169.140625 482.914062 150.273438 458.667969 148.78125 " fill-opacity="1" fill-rule="nonzero"/></g></svg>